<svg width="22" height="20" viewBox="0 0 22 20" fill="none" xmlns="http://www.w3.org/2000/svg">
<path fill-rule="evenodd" clip-rule="evenodd" d="M21.8 9.85066C21.8 10.2087 21.6578 10.552 21.4047 10.8051C21.1515 11.0583 20.8082 11.2005 20.4502 11.2005H4.81081L10.6071 16.9941C10.7326 17.1196 10.8321 17.2686 10.9 17.4325C10.968 17.5965 11.0029 17.7723 11.0029 17.9498C11.0029 18.1272 10.968 18.303 10.9 18.467C10.8321 18.6309 10.7326 18.7799 10.6071 18.9054C10.4816 19.0309 10.3326 19.1305 10.1686 19.1984C10.0046 19.2663 9.82886 19.3013 9.65137 19.3013C9.47388 19.3013 9.29813 19.2663 9.13415 19.1984C8.97017 19.1305 8.82118 19.0309 8.69568 18.9054L0.596581 10.8063C0.470874 10.681 0.371139 10.532 0.30309 10.368C0.23504 10.204 0.200012 10.0282 0.200012 9.85066C0.200012 9.67311 0.23504 9.4973 0.30309 9.3333C0.371139 9.16931 0.470874 9.02035 0.596581 8.89496L8.69568 0.79587C8.94914 0.542405 9.29292 0.400009 9.65137 0.400009C10.0098 0.400009 10.3536 0.542405 10.6071 0.79587C10.8605 1.04934 11.0029 1.39311 11.0029 1.75156C11.0029 2.11002 10.8605 2.45379 10.6071 2.70726L4.81081 8.50081H20.4502C20.8082 8.50081 21.1515 8.64302 21.4047 8.89617C21.6578 9.14932 21.8 9.49265 21.8 9.85066Z" fill="#232F3E"/>
</svg>
