<svg width="29" height="30" viewBox="0 0 29 30" fill="none" xmlns="http://www.w3.org/2000/svg">
<g filter="url(#filter0_d_1:42)">
<path d="M21.26 9.696L22.645 18.696C22.6888 18.9808 22.6705 19.2718 22.5914 19.5489C22.5123 19.8261 22.3743 20.0828 22.1867 20.3016C21.9992 20.5204 21.7665 20.6961 21.5047 20.8167C21.243 20.9372 20.9582 20.9997 20.67 21H7.33001C7.04164 21 6.75668 20.9377 6.49465 20.8173C6.23263 20.6969 5.99974 20.5212 5.81196 20.3024C5.62417 20.0836 5.48593 19.8267 5.40672 19.5494C5.3275 19.2721 5.30918 18.981 5.35301 18.696L6.73801 9.696C6.81066 9.22359 7.05009 8.79282 7.41294 8.4817C7.77578 8.17059 8.23805 7.9997 8.71601 8H19.284C19.7618 7.99994 20.2238 8.17094 20.5865 8.48203C20.9491 8.79312 21.1884 9.22376 21.261 9.696H21.26Z" stroke="#232F3E" stroke-linecap="round" stroke-linejoin="round"/>
<path d="M16 5C16 4.46957 15.7893 3.96086 15.4142 3.58579C15.0391 3.21071 14.5304 3 14 3C13.4696 3 12.9609 3.21071 12.5858 3.58579C12.2107 3.96086 12 4.46957 12 5" stroke="#232F3E" stroke-linecap="round" stroke-linejoin="round"/>
<circle cx="21" cy="7" r="3.5" fill="#DD6363" stroke="#F2F2F2"/>
</g>
<defs>
<filter id="filter0_d_1:42" x="-2" y="0" width="32" height="32" filterUnits="userSpaceOnUse" color-interpolation-filters="sRGB">
<feFlood flood-opacity="0" result="BackgroundImageFix"/>
<feColorMatrix in="SourceAlpha" type="matrix" values="0 0 0 0 0 0 0 0 0 0 0 0 0 0 0 0 0 0 127 0" result="hardAlpha"/>
<feOffset dy="4"/>
<feGaussianBlur stdDeviation="2"/>
<feComposite in2="hardAlpha" operator="out"/>
<feColorMatrix type="matrix" values="0 0 0 0 0 0 0 0 0 0 0 0 0 0 0 0 0 0 0.25 0"/>
<feBlend mode="normal" in2="BackgroundImageFix" result="effect1_dropShadow_1:42"/>
<feBlend mode="normal" in="SourceGraphic" in2="effect1_dropShadow_1:42" result="shape"/>
</filter>
</defs>
</svg>
