<svg width="20" height="20" fill="none" xmlns="http://www.w3.org/2000/svg"><path d="M10 11.25A3.125 3.125 0 1110 5a3.125 3.125 0 010 6.25zm0-5A1.875 1.875 0 1010 10a1.875 1.875 0 000-3.75z" fill="#232F3E"/><path d="M10 18.75l-5.272-6.218a22.439 22.439 0 01-.218-.282 6.806 6.806 0 01-1.385-4.125 6.875 6.875 0 0113.75 0 6.802 6.802 0 01-1.384 4.123l-.001.002s-.188.246-.216.28L10 18.75zm-4.492-7.253l.179.234L10 16.817l4.319-5.093.174-.229a5.564 5.564 0 001.132-3.37 5.625 5.625 0 10-11.25 0 5.566 5.566 0 001.133 3.372z" fill="#232F3E"/></svg>