<svg width="20" height="20" fill="none" xmlns="http://www.w3.org/2000/svg"><g clip-path="url(#clip0_1:39)"><path d="M10 3.435l-.896-.921C7 .35 3.142 1.098 1.75 3.816c-.654 1.279-.801 3.125.392 5.481 1.15 2.27 3.543 4.987 7.858 7.947 4.315-2.96 6.706-5.678 7.858-7.947 1.193-2.357 1.047-4.202.392-5.48C16.858 1.096 13 .35 10.896 2.512L10 3.435zm0 15.315C-9.166 6.085 4.099-3.8 9.78 1.429c.075.069.149.14.22.214.07-.074.144-.145.22-.213C15.9-3.802 29.166 6.084 10 18.75z" fill="#232F3E"/></g><defs><clipPath id="clip0_1:39"><path fill="#fff" d="M0 0h20v20H0z"/></clipPath></defs></svg>